<svg viewBox="0 0 343 134" xmlns="http://www.w3.org/2000/svg"><g fill="#000" fill-rule="nonzero"><path d="M83 0H3C1.2 0 0 1.1 0 2.7v22.5c0 1.4 1.2 2.7 3 2.7h47v103c0 1.6 1.2 2.7 3 2.7h30c1.8 0 3-1.1 3-2.7V2.7C86 1.1 84.7 0 83 0zM207.8 133.6c-1.7 0-3-1.1-3-2.7V2.7c0-1.6 1.2-2.7 3-2.7h30c1.8 0 3 1.1 3 2.7v103h37c1.8 0 12.75 26.488 13.54 27.9H207.8zM192 0h-90c-1.8 0-3 1.1-3 2.7v22.5c0 1.4 1.2 2.7 3 2.7h57v103c0 1.6 1.2 2.7 3 2.7h30c1.8 0 3-1.1 3-2.7V2.7c0-1.6-1.3-2.7-3-2.7z"/><path d="M129 70h30v36h-30zM283.7 0h-29.9c-1.8 0-3 .782-3 1.92v91.16c0 1.138 1.2 1.92 3 1.92 20.917 0 31.917.02 33 .06V1.92C286.7.782 285.5 0 283.7 0z"/><path d="M333.103.876c1.32.01 5.778 0 9.15 0-7.272 15.595-16.847 38.03-28.725 67.304-.419.899-1.795 1.01-3.426.249l-33.19.321c-1.63-.76-2.43-1.886-2.01-2.784 12.117-27.038 21.871-48.483 29.263-64.335.107-.229.182-.522.32-.755.137-.234.356 0 3.424 0s16.824-.062 25.194 0z"/><path d="M333.103 133.204c-8.37.061-22.126 0-25.194 0-3.068 0-3.287.233-3.425 0-.137-.234-.212-.527-.319-.755-7.392-15.852-17.146-37.297-29.264-64.335-.419-.899.38-2.024 2.012-2.785l33.189.322c1.631-.761 3.007-.65 3.426.249 11.878 29.274 21.453 51.708 28.725 67.304-3.372 0-7.83-.01-9.15 0zM188.7 0H98.8c-1.8 0-3 1.1-3 2.7v128.2c0 1.6 1.2 2.7 3 2.7h30c1.8 0 3-1.1 3-2.7v-103h56.9c1.9 0 3.1-1.2 3.1-2.7V2.7c-.1-1.6-1.3-2.7-3.1-2.7z"/></g></svg>